<mxfile host="app.diagrams.net" agent="Mozilla/5.0 (Windows NT 10.0; Win64; x64) AppleWebKit/537.36 (KHTML, like Gecko) Chrome/132.0.0.0 Safari/537.36" version="26.0.7">
  <diagram name="Страница — 1" id="HLRiC42hYYR5M19iKQHQ">
    <mxGraphModel dx="1016" dy="660" grid="1" gridSize="10" guides="1" tooltips="1" connect="1" arrows="1" fold="1" page="1" pageScale="1" pageWidth="827" pageHeight="1169" math="0" shadow="0">
      <root>
        <mxCell id="0" />
        <mxCell id="1" parent="0" />
        <mxCell id="scd4PbS1wcvTEauWFtrp-1" value="" style="points=[];aspect=fixed;html=1;align=center;shadow=0;dashed=0;fillColor=#FF6A00;strokeColor=none;shape=mxgraph.alibaba_cloud.kafka;" vertex="1" parent="1">
          <mxGeometry x="350" y="150" width="56.699999999999996" height="42" as="geometry" />
        </mxCell>
        <mxCell id="scd4PbS1wcvTEauWFtrp-2" value="UI port" style="rounded=0;whiteSpace=wrap;html=1;" vertex="1" parent="1">
          <mxGeometry y="50" width="93.35" height="50" as="geometry" />
        </mxCell>
        <mxCell id="scd4PbS1wcvTEauWFtrp-3" style="edgeStyle=orthogonalEdgeStyle;rounded=0;orthogonalLoop=1;jettySize=auto;html=1;exitX=0.5;exitY=1;exitDx=0;exitDy=0;entryX=0.511;entryY=0.071;entryDx=0;entryDy=0;entryPerimeter=0;" edge="1" parent="1" source="scd4PbS1wcvTEauWFtrp-2" target="scd4PbS1wcvTEauWFtrp-1">
          <mxGeometry relative="1" as="geometry" />
        </mxCell>
        <mxCell id="scd4PbS1wcvTEauWFtrp-4" value="Kafka Topics" style="text;html=1;align=center;verticalAlign=middle;whiteSpace=wrap;rounded=0;" vertex="1" parent="1">
          <mxGeometry x="420" y="150" width="90" height="30" as="geometry" />
        </mxCell>
        <mxCell id="scd4PbS1wcvTEauWFtrp-5" value="Authentication&lt;div&gt;microservice&lt;/div&gt;" style="rounded=0;whiteSpace=wrap;html=1;" vertex="1" parent="1">
          <mxGeometry x="707" y="220" width="120" height="60" as="geometry" />
        </mxCell>
        <mxCell id="scd4PbS1wcvTEauWFtrp-6" value="User&lt;div&gt;microservice&lt;/div&gt;" style="rounded=0;whiteSpace=wrap;html=1;" vertex="1" parent="1">
          <mxGeometry x="707" y="420" width="120" height="60" as="geometry" />
        </mxCell>
        <mxCell id="scd4PbS1wcvTEauWFtrp-7" value="Feed&lt;div&gt;microservice&lt;/div&gt;" style="rounded=0;whiteSpace=wrap;html=1;" vertex="1" parent="1">
          <mxGeometry x="707" y="650" width="120" height="60" as="geometry" />
        </mxCell>
        <mxCell id="scd4PbS1wcvTEauWFtrp-11" style="edgeStyle=orthogonalEdgeStyle;rounded=0;orthogonalLoop=1;jettySize=auto;html=1;exitX=1;exitY=0.5;exitDx=0;exitDy=0;exitPerimeter=0;entryX=0;entryY=0.25;entryDx=0;entryDy=0;" edge="1" parent="1" source="scd4PbS1wcvTEauWFtrp-9" target="scd4PbS1wcvTEauWFtrp-5">
          <mxGeometry relative="1" as="geometry" />
        </mxCell>
        <mxCell id="scd4PbS1wcvTEauWFtrp-9" value="Authenticate" style="shape=tape;whiteSpace=wrap;html=1;" vertex="1" parent="1">
          <mxGeometry x="330" y="210" width="110" height="70" as="geometry" />
        </mxCell>
        <mxCell id="scd4PbS1wcvTEauWFtrp-12" style="edgeStyle=orthogonalEdgeStyle;rounded=0;orthogonalLoop=1;jettySize=auto;html=1;exitX=1;exitY=0.5;exitDx=0;exitDy=0;exitPerimeter=0;entryX=0;entryY=0.25;entryDx=0;entryDy=0;" edge="1" parent="1" source="scd4PbS1wcvTEauWFtrp-10" target="scd4PbS1wcvTEauWFtrp-6">
          <mxGeometry relative="1" as="geometry" />
        </mxCell>
        <mxCell id="scd4PbS1wcvTEauWFtrp-10" value="UserManagement" style="shape=tape;whiteSpace=wrap;html=1;" vertex="1" parent="1">
          <mxGeometry x="330" y="280" width="110" height="70" as="geometry" />
        </mxCell>
      </root>
    </mxGraphModel>
  </diagram>
</mxfile>
